<svg id="visual" viewBox="0 0 960 540" width="960" height="540" xmlns="http://www.w3.org/2000/svg" xmlns:xlink="http://www.w3.org/1999/xlink" version="1.1"><rect x="0" y="0" width="960" height="540" fill="#00171F"></rect><path d="M666 540L662 522C658 504 650 468 673.3 432C696.7 396 751.3 360 752.8 324C754.3 288 702.7 252 699.2 216C695.7 180 740.3 144 758.3 108C776.3 72 767.7 36 763.3 18L759 0L960 0L960 18C960 36 960 72 960 108C960 144 960 180 960 216C960 252 960 288 960 324C960 360 960 396 960 432C960 468 960 504 960 522L960 540Z" fill="#00A8E8" stroke-linecap="round" stroke-linejoin="miter"></path></svg>