<svg id="visual" viewBox="0 0 960 540" width="960" height="540" xmlns="http://www.w3.org/2000/svg" xmlns:xlink="http://www.w3.org/1999/xlink" version="1.1"><rect x="0" y="0" width="960" height="540" fill="#00171F"></rect><path d="M836 540L843.8 530C851.7 520 867.3 500 872 480C876.7 460 870.3 440 863.2 420C856 400 848 380 857.3 360C866.7 340 893.3 320 890.5 300C887.7 280 855.3 260 855.3 240C855.3 220 887.7 200 897.5 180C907.3 160 894.7 140 883 120C871.3 100 860.7 80 867.3 60C874 40 898 20 910 10L922 0L960 0L960 10C960 20 960 40 960 60C960 80 960 100 960 120C960 140 960 160 960 180C960 200 960 220 960 240C960 260 960 280 960 300C960 320 960 340 960 360C960 380 960 400 960 420C960 440 960 460 960 480C960 500 960 520 960 530L960 540Z" fill="#00A8E8" stroke-linecap="round" stroke-linejoin="miter"></path></svg>