<svg id="visual" viewBox="0 0 960 540" width="960" height="540" xmlns="http://www.w3.org/2000/svg" xmlns:xlink="http://www.w3.org/1999/xlink" version="1.1"><rect x="0" y="0" width="960" height="540" fill="#00171F"></rect><path d="M780 540L770.2 522C760.3 504 740.7 468 750.7 432C760.7 396 800.3 360 813.8 324C827.3 288 814.7 252 802.7 216C790.7 180 779.3 144 781.7 108C784 72 800 36 808 18L816 0L960 0L960 18C960 36 960 72 960 108C960 144 960 180 960 216C960 252 960 288 960 324C960 360 960 396 960 432C960 468 960 504 960 522L960 540Z" fill="#00A8E8" stroke-linecap="round" stroke-linejoin="miter"></path></svg>